<svg width="98" height="108" viewBox="0 0 98 108" fill="none" xmlns="http://www.w3.org/2000/svg">
<path d="M45.0803 3.46263e-05L21.4741 49.735L19.8815 53.0932L18.0002 57.0466L18.1007 57.2427L37.7127 57.0101L39.3485 53.5851L51.8005 27.3784L45.0803 3.46263e-05Z" fill="url(#paint0_linear)"/>
<path d="M52.1444 56.8443L18.1047 57.2402L26.9843 75.0082L43.6704 74.8139L52.1444 56.8443Z" fill="url(#paint1_linear)"/>
<path d="M52.1172 108L75.7234 58.265L77.316 54.9068L79.1973 50.9534L79.0969 50.7573L59.4848 50.9899L57.849 54.4149L45.397 80.6216L52.1172 108Z" fill="url(#paint2_linear)"/>
<path d="M45.0527 51.1557L79.0923 50.7598L70.2127 32.9918L53.5266 33.1861L45.0527 51.1557Z" fill="url(#paint3_linear)"/>
<defs>
<linearGradient id="paint0_linear" x1="-272.682" y1="134.351" x2="-311.854" y2="76.2754" gradientUnits="userSpaceOnUse">
<stop stop-color="#37BF81"/>
<stop offset="1" stop-color="#131D32"/>
</linearGradient>
<linearGradient id="paint1_linear" x1="-254.061" y1="132.569" x2="-279.542" y2="149.757" gradientUnits="userSpaceOnUse">
<stop stop-color="#22895B"/>
<stop offset="1" stop-color="#131D32"/>
</linearGradient>
<linearGradient id="paint2_linear" x1="369.879" y1="-26.3508" x2="409.051" y2="31.7246" gradientUnits="userSpaceOnUse">
<stop stop-color="#37BF81"/>
<stop offset="1" stop-color="#131D32"/>
</linearGradient>
<linearGradient id="paint3_linear" x1="351.258" y1="-24.5694" x2="376.739" y2="-41.757" gradientUnits="userSpaceOnUse">
<stop stop-color="#22895B"/>
<stop offset="1" stop-color="#131D32"/>
</linearGradient>
</defs>
</svg>
